<?xml version="1.0" encoding="utf-8"?>
<!-- Generator: Adobe Illustrator 16.0.0, SVG Export Plug-In . SVG Version: 6.00 Build 0)  -->
<!DOCTYPE svg PUBLIC "-//W3C//DTD SVG 1.1//EN" "http://www.w3.org/Graphics/SVG/1.1/DTD/svg11.dtd">
<svg version="1.1" xmlns="http://www.w3.org/2000/svg" xmlns:xlink="http://www.w3.org/1999/xlink" x="0px" y="0px" width="32px"
	 height="32px" viewBox="0 0 32 32" enable-background="new 0 0 32 32" xml:space="preserve">
<g id="Layer_1" display="none">
	<title>evil</title>
	<path display="inline" d="M20,14c-1.105,0-2-0.895-2-2c0-0.037,0.001-0.073,0.003-0.109c0.063-1.483,1.413-2.467,2.55-3.036
		c1.086-0.543,2.159-0.814,2.205-0.826c0.536-0.134,1.079,0.192,1.213,0.728c0.135,0.536-0.191,1.079-0.728,1.213
		c-0.552,0.139-1.204,0.379-1.779,0.667c0.333,0.357,0.537,0.836,0.537,1.363C22.001,13.105,21.105,14,20,14L20,14z M8.758,9.97
		C8.222,9.836,7.896,9.293,8.03,8.757c0.134-0.536,0.677-0.862,1.213-0.728c0.045,0.011,1.119,0.283,2.205,0.826
		c1.137,0.568,2.486,1.553,2.55,3.036C14,11.927,14.001,11.963,14.001,12c0,1.105-0.895,2-2,2s-2-0.895-2-2
		c0-0.527,0.204-1.005,0.537-1.363C9.963,10.349,9.309,10.109,8.758,9.97L8.758,9.97z M16,23c2.549,0,4.779-1.361,6.003-3.398
		l2.573,1.545c-1.749,2.908-4.936,4.854-8.576,4.854c-3.641,0-6.827-1.946-8.576-4.854l2.573-1.545C11.221,21.639,13.451,23,16,23z
		 M32,2c0-1.422-0.298-2.775-0.833-4c-1.049,2.401-3.015,4.31-5.453,5.287C23.02,1.226,19.652,0,16,0
		c-3.653,0-7.021,1.226-9.714,3.287C3.847,2.311,1.882,0.401,0.833-2C0.298-0.775,0,0.578,0,2c0,2.299,0.777,4.417,2.081,6.106
		C0.757,10.435,0,13.129,0,16c0,8.837,7.163,16,16,16s16-7.163,16-16c0-2.871-0.757-5.565-2.081-7.894C31.223,6.417,32,4.3,32,2z
		 M16,29C8.82,29,3,23.18,3,16C3,8.82,8.82,3,16,3c7.18,0,13,5.82,13,13C29,23.18,23.18,29,16,29z"/>
</g>
<g id="Layer_2">
	<circle fill="none" stroke="#000000" stroke-miterlimit="10" cx="15.75" cy="9.833" r="5.375"/>
	<path d="M16.063,14.708c-6.031,0-10.938,4.907-10.938,10.938c0,0.213,0.02,0.422,0.041,0.629l0.057,0.613h0.934v-1H6.134
		c-0.005-0.08-0.009-0.162-0.009-0.242c0-5.48,4.458-9.938,9.938-9.938S26,20.166,26,25.646c0,0.08-0.002,0.162-0.005,0.242h-0.026
		v1h0.954l0.04-0.457C26.985,26.172,27,25.91,27,25.646C27,19.615,22.094,14.708,16.063,14.708z"/>
</g>
</svg>
