<?xml version="1.0" encoding="utf-8"?>
<!-- Generator: Adobe Illustrator 16.0.0, SVG Export Plug-In . SVG Version: 6.00 Build 0)  -->
<!DOCTYPE svg PUBLIC "-//W3C//DTD SVG 1.1//EN" "http://www.w3.org/Graphics/SVG/1.1/DTD/svg11.dtd">
<svg version="1.1" id="Layer_1" xmlns="http://www.w3.org/2000/svg" xmlns:xlink="http://www.w3.org/1999/xlink" x="0px" y="0px"
	 width="54px" height="50px" viewBox="0 0 54 50" enable-background="new 0 0 54 50" xml:space="preserve">
<path d="M42.237,11.126c-4.328-3.639-11.014-3.092-15.153,1.123c-4.141-4.215-10.827-4.77-15.154-1.123
	c-5.63,4.739-4.807,12.465-0.794,16.562l13.132,13.379c0.749,0.764,1.752,1.19,2.815,1.19c1.07,0,2.066-0.42,2.814-1.184
	L43.03,27.694C47.036,23.599,47.875,15.873,42.237,11.126z M40.47,25.164L27.338,38.543c-0.18,0.18-0.329,0.18-0.509,0
	L13.697,25.164c-2.732-2.785-3.287-8.056,0.547-11.283c2.912-2.448,7.404-2.081,10.219,0.786l2.621,2.673l2.62-2.673
	c2.83-2.882,7.322-3.234,10.22-0.793C43.749,17.101,43.181,22.401,40.47,25.164z"/>
</svg>
